<?xml version="1.0" encoding="UTF-8" standalone="no"?>
<!DOCTYPE svg PUBLIC "-//W3C//DTD SVG 1.1//EN" "http://www.w3.org/Graphics/SVG/1.1/DTD/svg11.dtd">
<svg xmlns="http://www.w3.org/2000/svg" version="1.1" viewBox="0.00 0.00 586.00 391.00">
<path fill="#5eb09e" d="
  M 453.01 197.56
  A 164.74 164.74 0.0 0 1 288.27 362.30
  A 164.74 164.74 0.0 0 1 123.53 197.56
  A 164.74 164.74 0.0 0 1 288.27 32.82
  A 164.74 164.74 0.0 0 1 453.01 197.56
  Z
  M 438.67 226.64
  Q 440.56 217.12 441.01 208.98
  C 441.51 199.77 441.59 189.62 440.54 180.68
  Q 435.68 139.20 410.85 105.93
  C 404.04 96.82 395.38 87.68 386.78 80.47
  Q 354.07 53.07 312.42 46.30
  Q 302.63 44.71 292.72 44.49
  Q 236.53 43.25 192.24 78.37
  Q 179.10 88.79 168.32 102.51
  Q 136.61 142.88 135.02 194.82
  Q 134.83 201.20 135.38 207.90
  Q 135.89 214.10 136.84 220.46
  Q 140.80 246.90 153.59 270.31
  Q 168.98 298.48 193.56 317.77
  Q 225.45 342.78 264.40 348.82
  Q 265.75 349.03 267.07 349.17
  Q 268.47 349.33 269.78 349.61
  C 272.82 350.24 276.07 350.28 279.13 350.28
  Q 280.11 350.27 280.93 350.74
  A 0.89 0.89 0.0 0 0 282.26 349.96
  L 282.25 316.96
  A 0.92 0.92 0.0 0 0 281.31 316.04
  Q 280.21 316.07 279.12 315.85
  Q 263.95 312.84 253.38 302.26
  Q 238.99 287.86 239.00 266.07
  Q 239.00 255.48 238.99 244.51
  A 0.51 0.51 0.0 0 0 238.47 244.00
  Q 225.33 244.01 211.74 244.06
  C 192.32 244.14 174.60 232.82 166.65 215.12
  Q 161.45 203.53 162.42 191.24
  Q 163.29 180.31 168.19 171.37
  Q 176.94 155.42 193.79 148.82
  C 198.49 146.98 203.90 145.78 208.93 145.72
  Q 223.48 145.55 238.33 145.68
  Q 239.01 145.69 239.01 145.01
  Q 238.99 129.02 239.02 114.06
  C 239.07 91.60 253.53 72.79 275.03 66.56
  Q 279.96 65.13 285.63 64.93
  Q 292.73 64.69 297.32 65.61
  Q 321.09 70.36 332.45 92.19
  C 336.15 99.30 337.72 107.92 337.72 115.99
  Q 337.74 131.03 337.67 144.79
  A 0.81 0.81 0.0 0 0 338.47 145.60
  Q 350.09 145.80 361.14 145.54
  Q 369.95 145.33 376.29 146.83
  Q 390.65 150.21 400.97 161.13
  Q 407.95 168.50 411.34 178.04
  Q 415.20 188.88 413.71 201.28
  C 411.27 221.64 396.22 237.87 376.52 242.70
  Q 369.92 244.31 357.77 244.08
  Q 347.69 243.88 337.99 244.06
  Q 337.73 244.07 337.73 244.32
  Q 337.66 251.96 337.70 259.61
  Q 337.74 270.35 337.01 274.84
  C 334.26 291.79 323.48 306.06 307.55 312.84
  Q 301.67 315.34 294.97 316.16
  A 1.11 1.10 -3.6 0 0 294.00 317.25
  L 294.01 349.81
  A 0.88 0.88 0.0 0 0 295.03 350.68
  C 298.46 350.13 301.88 350.26 305.37 349.84
  Q 349.60 344.46 384.09 316.90
  Q 386.13 315.27 387.90 313.66
  C 391.10 310.73 394.47 307.96 397.45 304.86
  Q 406.22 295.72 412.88 286.41
  Q 432.16 259.45 438.67 226.64
  Z
  M 293.46 194.03
  Q 294.60 201.76 294.27 208.37
  Q 294.01 213.55 294.00 218.51
  Q 293.99 230.42 294.01 242.67
  A 0.31 0.30 -21.3 0 0 294.52 242.89
  C 302.87 235.23 313.68 231.81 325.35 232.32
  Q 326.01 232.35 326.01 231.69
  Q 325.97 173.35 326.05 115.88
  Q 326.06 108.87 324.62 103.86
  Q 321.73 93.76 314.06 86.64
  Q 303.10 76.47 288.31 76.34
  C 271.40 76.20 256.39 88.03 251.81 104.29
  Q 250.45 109.12 250.66 118.79
  Q 250.94 131.12 250.64 145.17
  Q 250.62 145.92 251.35 146.10
  Q 255.28 147.10 259.37 148.61
  Q 272.01 153.29 280.52 163.39
  C 287.66 171.87 291.79 182.79 293.46 194.03
  Z
  M 250.75 232.91
  Q 250.75 252.36 250.69 267.69
  Q 250.68 270.63 251.06 273.54
  Q 251.45 276.58 252.45 279.27
  Q 260.01 299.75 281.54 304.59
  A 0.59 0.59 0.0 0 0 282.26 304.01
  L 282.25 239.53
  Q 282.25 239.05 281.78 238.95
  Q 279.74 238.53 277.60 238.04
  Q 275.30 237.52 272.87 236.80
  Q 258.23 232.50 247.25 219.33
  Q 239.08 209.52 239.04 197.45
  Q 238.97 178.94 239.00 157.52
  A 0.55 0.55 0.0 0 0 238.44 156.97
  Q 227.47 157.12 215.42 156.93
  Q 207.59 156.81 201.86 158.40
  Q 188.44 162.13 180.65 173.41
  Q 174.53 182.25 173.90 192.30
  Q 173.08 205.14 180.66 216.22
  C 187.14 225.70 198.37 232.32 210.32 232.33
  Q 230.27 232.36 250.04 232.21
  Q 250.75 232.20 250.75 232.91
  Z
  M 337.64 157.72
  L 337.76 231.80
  A 0.65 0.65 0.0 0 0 338.42 232.45
  L 364.60 232.40
  A 38.15 37.58 -0.1 0 0 402.68 194.75
  L 402.68 194.53
  A 38.15 37.58 -0.1 0 0 364.46 157.02
  L 338.28 157.07
  A 0.65 0.65 0.0 0 0 337.64 157.72
  Z
  M 281.12 190.80
  C 277.53 174.55 267.17 162.92 251.36 158.10
  Q 250.72 157.91 250.72 158.58
  Q 250.77 177.32 250.69 197.93
  C 250.68 202.28 252.14 206.20 254.60 209.67
  Q 264.66 223.88 281.65 227.12
  A 0.52 0.52 0.0 0 0 282.27 226.60
  Q 282.25 222.95 282.26 218.63
  Q 282.27 214.95 282.75 210.85
  Q 283.72 202.56 281.12 190.80
  Z
  M 325.54 273.48
  Q 325.78 272.20 325.82 270.99
  Q 326.20 259.09 325.94 244.59
  Q 325.93 244.11 325.45 244.07
  Q 311.73 242.87 302.35 251.66
  Q 298.52 255.25 296.56 260.27
  Q 294.14 266.46 294.11 271.67
  Q 294.00 287.51 293.97 303.94
  Q 293.97 304.65 294.66 304.53
  Q 304.71 302.87 312.55 296.12
  Q 323.04 287.08 325.54 273.48
  Z"
/>
</svg>
