<?xml version="1.0" encoding="UTF-8" standalone="no"?>
<!DOCTYPE svg PUBLIC "-//W3C//DTD SVG 1.1//EN" "http://www.w3.org/Graphics/SVG/1.1/DTD/svg11.dtd">
<svg xmlns="http://www.w3.org/2000/svg" version="1.1" viewBox="0.00 0.00 200.00 150.00">
<path fill="#000000" d="
  M 58.77 86.45
  Q 60.80 86.02 58.80 85.47
  Q 53.06 83.89 49.22 80.51
  Q 39.54 72.01 39.31 59.41
  A 0.26 0.25 -75.6 0 1 39.69 59.18
  Q 44.36 61.86 49.84 62.04
  Q 50.70 62.07 50.08 61.48
  Q 48.01 59.54 46.06 57.44
  C 38.44 49.29 37.70 36.66 42.89 27.00
  Q 43.27 26.29 43.79 26.91
  Q 61.41 47.83 87.89 53.28
  C 91.31 53.98 94.86 54.09 98.30 54.77
  A 0.60 0.60 0.0 0 0 99.01 54.10
  C 98.60 51.14 98.06 48.46 98.53 45.40
  Q 100.38 33.19 110.12 26.26
  Q 117.23 21.19 126.62 21.58
  Q 137.36 22.03 144.78 29.59
  Q 145.25 30.08 145.90 29.88
  C 149.64 28.74 153.59 27.79 157.21 26.06
  Q 159.30 25.07 161.45 24.10
  Q 162.19 23.76 161.90 24.52
  Q 158.69 32.89 152.02 37.26
  Q 150.49 38.27 152.30 38.00
  Q 158.53 37.05 165.24 34.51
  Q 165.78 34.31 165.45 34.78
  Q 160.33 42.11 153.94 46.88
  C 153.01 47.57 152.43 48.28 152.46 49.51
  Q 152.79 65.11 148.02 77.75
  Q 140.01 98.97 122.71 113.07
  C 117.05 117.68 109.59 121.73 102.50 124.19
  Q 83.53 130.79 63.26 127.74
  Q 49.29 125.64 36.98 118.30
  Q 35.95 117.68 34.91 117.18
  Q 34.06 116.76 35.01 116.81
  Q 47.10 117.46 57.39 114.10
  Q 65.45 111.46 72.88 106.11
  Q 73.70 105.52 72.69 105.41
  Q 55.84 103.47 49.02 87.57
  A 0.75 0.75 0.0 0 1 49.83 86.53
  Q 54.69 87.32 58.77 86.45
  Z"
/>
</svg>
