<?xml version="1.0" encoding="UTF-8" standalone="no"?>
<!DOCTYPE svg PUBLIC "-//W3C//DTD SVG 1.1//EN" "http://www.w3.org/Graphics/SVG/1.1/DTD/svg11.dtd">
<svg xmlns="http://www.w3.org/2000/svg" version="1.1" viewBox="0.00 0.00 155.00 150.00">
<path fill="#1d1d1b" d="
  M 155.00 34.28
  L 155.00 116.04
  C 152.14 125.15 146.75 132.20 137.09 132.19
  Q 77.95 132.17 17.63 132.19
  C 8.22 132.19 2.68 125.04 0.00 116.66
  L 0.00 32.29
  Q 2.50 27.33 3.32 25.99
  Q 8.32 17.81 18.07 17.81
  Q 73.27 17.84 127.32 17.83
  C 139.95 17.83 150.60 21.54 155.00 34.28
  Z
  M 129.72 32.31
  A 1.02 1.02 0.0 0 0 129.09 30.48
  L 25.55 30.48
  A 1.02 1.02 0.0 0 0 24.92 32.31
  L 76.69 72.85
  A 1.02 1.02 0.0 0 0 77.95 72.85
  L 129.72 32.31
  Z
  M 75.11 87.44
  Q 44.53 63.79 14.16 39.97
  Q 13.56 39.49 12.92 40.55
  A 1.39 1.35 -30.1 0 0 12.72 41.26
  Q 12.68 74.67 12.65 108.25
  Q 12.65 113.50 13.43 115.45
  Q 15.15 119.76 21.40 119.76
  Q 76.19 119.82 134.91 119.77
  C 137.54 119.76 140.35 118.40 141.43 115.99
  Q 142.17 114.33 142.15 110.12
  Q 142.02 76.31 142.34 42.50
  Q 142.37 39.43 140.08 40.19
  A 1.09 1.05 -72.6 0 0 139.75 40.37
  L 79.73 87.42
  A 3.77 3.75 -45.1 0 1 75.11 87.44
  Z"
/>
</svg>
