<?xml version="1.0" encoding="UTF-8" standalone="no"?>
<!DOCTYPE svg PUBLIC "-//W3C//DTD SVG 1.1//EN" "http://www.w3.org/Graphics/SVG/1.1/DTD/svg11.dtd">
<svg xmlns="http://www.w3.org/2000/svg" version="1.1" viewBox="0.00 0.00 132.00 150.00">
<path fill="#000000" d="
  M 132.00 72.20
  L 132.00 75.53
  Q 131.11 86.00 130.81 96.50
  C 130.37 112.40 126.96 128.78 110.96 135.69
  Q 102.14 139.49 94.48 140.23
  C 79.46 141.69 64.95 141.80 50.44 140.95
  Q 42.19 140.46 32.66 138.95
  Q 22.25 137.30 16.21 133.46
  C 5.92 126.92 2.20 115.80 1.24 103.98
  Q 0.44 94.19 0.70 83.65
  Q 0.92 74.55 0.75 65.32
  Q 0.60 56.46 1.17 47.07
  C 2.17 30.66 9.17 16.62 26.20 12.54
  C 28.77 11.92 31.23 11.23 33.84 10.79
  Q 44.28 9.05 59.23 8.59
  Q 76.14 8.06 93.91 9.65
  C 103.79 10.53 114.79 13.95 121.40 21.33
  C 127.61 28.26 129.73 38.71 130.13 48.01
  Q 130.66 60.11 132.00 72.20
  Z
  M 119.46 47.65
  A 26.51 26.51 0.0 0 0 92.94 21.23
  L 38.88 21.24
  A 26.51 26.51 0.0 0 0 12.38 47.82
  L 12.53 102.37
  A 26.51 26.51 0.0 0 0 39.19 128.80
  L 93.28 128.49
  A 26.51 26.51 0.0 0 0 119.63 101.89
  L 119.46 47.65
  Z"
/>
<circle fill="#000000" cx="100.94" cy="39.93" r="7.74"/>
<path fill="#000000" d="
  M 99.36 75.02
  A 33.37 33.37 0.0 0 1 65.99 108.39
  A 33.37 33.37 0.0 0 1 32.62 75.02
  A 33.37 33.37 0.0 0 1 65.99 41.65
  A 33.37 33.37 0.0 0 1 99.36 75.02
  Z
  M 87.70 74.91
  A 21.70 21.70 0.0 0 0 66.00 53.21
  A 21.70 21.70 0.0 0 0 44.30 74.91
  A 21.70 21.70 0.0 0 0 66.00 96.61
  A 21.70 21.70 0.0 0 0 87.70 74.91
  Z"
/>
</svg>
