<?xml version="1.0" encoding="UTF-8" standalone="no"?>
<!DOCTYPE svg PUBLIC "-//W3C//DTD SVG 1.1//EN" "http://www.w3.org/Graphics/SVG/1.1/DTD/svg11.dtd">
<svg xmlns="http://www.w3.org/2000/svg" version="1.1" viewBox="0.00 0.00 150.00 150.00">
<ellipse fill="#000000" cx="0.00" cy="0.00" transform="translate(22.04,22.55) rotate(-1.7)" rx="16.84" ry="15.42"/>
<path fill="#000000" d="
  M 83.09 62.49
  Q 83.07 63.68 83.73 62.68
  C 88.75 55.12 95.93 49.86 105.24 48.68
  Q 117.96 47.07 128.20 52.69
  C 131.76 54.64 136.41 59.20 138.74 63.11
  Q 144.32 72.48 144.40 83.83
  Q 144.60 111.41 144.78 139.20
  Q 144.78 139.75 144.23 139.75
  L 115.69 139.75
  Q 114.99 139.75 114.99 139.05
  Q 115.02 116.53 114.98 91.66
  C 114.97 86.10 113.88 79.92 110.08 75.61
  C 105.81 70.76 97.15 70.46 91.97 73.58
  Q 88.63 75.59 86.17 78.90
  C 83.71 82.21 83.23 86.28 83.23 90.31
  Q 83.25 115.64 83.24 139.25
  A 0.51 0.51 0.0 0 1 82.73 139.76
  L 54.01 139.76
  Q 53.46 139.76 53.46 139.20
  Q 53.65 98.16 53.77 57.22
  C 53.77 55.07 53.67 52.94 53.51 50.84
  A 0.55 0.55 0.0 0 1 54.06 50.24
  L 82.40 50.24
  Q 83.32 50.24 83.30 51.16
  L 83.09 62.49
  Z"
/>
<rect fill="#000000" x="7.00" y="50.24" width="29.76" height="89.52" rx="0.31"/>
</svg>
